<svg xmlns="http://www.w3.org/2000/svg" xmlns:xlink="http://www.w3.org/1999/xlink" width="500" height="500" viewBox="0 0 500 500"><defs><style>.a,.g,.h{fill:none;}.b{clip-path:url(#a);}.c{fill:url(#b);}.d{fill:#fff;}.e{fill:url(#c);}.f{fill:url(#d);}.g{stroke:#f2290a;stroke-linecap:round;stroke-width:8px;}.h{stroke:#fff;stroke-linejoin:round;stroke-width:10px;}</style><clipPath id="a"><rect class="a" width="500" height="500"/></clipPath><linearGradient id="b" x1="0.5" x2="0.5" y2="1.132" gradientUnits="objectBoundingBox"><stop offset="0" stop-color="#ff7d14"/><stop offset="1" stop-color="#ed041d"/></linearGradient><linearGradient id="c" y1="-3.599" x2="0.383" y2="8.582" xlink:href="#b"/><linearGradient id="d" y1="-3.626" y2="8.266" xlink:href="#b"/></defs><g class="b"><circle class="c" cx="250" cy="250" r="250"/><g transform="translate(-1216 -234.977)"><ellipse class="d" cx="141.5" cy="90.5" rx="141.5" ry="90.5" transform="translate(1325 457)"/><circle class="d" cx="37.5" cy="37.5" r="37.5" transform="translate(1304 467)"/><circle class="e" cx="25" cy="25" r="25" transform="translate(1392 507)"/><circle class="f" cx="25" cy="25" r="25" transform="translate(1492 507)"/><circle class="d" cx="37.5" cy="37.5" r="37.5" transform="translate(1553 467)"/><circle class="d" cx="25" cy="25" r="25" transform="translate(1551 332)"/><path class="g" d="M7393.005,576.181s49.966,28.881,100,0" transform="translate(-5976.505 10)"/><path class="h" d="M7436.5,453l22.28-132.023,69.72,21.048" transform="translate(-5970 10)"/></g></g></svg>