<svg xmlns="http://www.w3.org/2000/svg" xmlns:xlink="http://www.w3.org/1999/xlink" width="460" height="460" viewBox="0 0 460 460"><defs><style>.a,.f{fill:none;}.b{clip-path:url(#a);}.c{fill:url(#b);}.d{fill:#fff;}.e{fill:url(#c);}.f{stroke:#fff;stroke-linejoin:round;stroke-width:20px;}.g{clip-path:url(#d);}.h{fill:url(#e);}</style><clipPath id="a"><rect class="a" width="460" height="460"/></clipPath><linearGradient id="b" x1="0.5" x2="0.5" y2="1.132" gradientUnits="objectBoundingBox"><stop offset="0" stop-color="#ff7d14"/><stop offset="1" stop-color="#ed041d"/></linearGradient><linearGradient id="c" y1="-7.618" y2="5.882" xlink:href="#b"/><clipPath id="d"><rect class="a" width="80" height="80"/></clipPath><linearGradient id="e" y1="-3.353" y2="4.733" xlink:href="#b"/></defs><g class="b"><circle class="c" cx="230" cy="230" r="230"/><ellipse class="d" cx="161.5" cy="99" rx="161.5" ry="99" transform="translate(69 195.023)"/><circle class="d" cx="37.5" cy="37.5" r="37.5" transform="translate(48 212.023)"/><circle class="d" cx="37.5" cy="37.5" r="37.5" transform="translate(337 212.023)"/><circle class="d" cx="30" cy="30" r="30" transform="translate(315 77.023)"/><path class="e" d="M7393,576.181s92.437,100.634,185,0" transform="translate(-7255.005 -253.119)"/><path class="f" d="M7436.5,453l22.28-132.023,69.72,21.048" transform="translate(-7206 -244.977)"/><g class="g" transform="translate(253 224.496)"><path class="h" d="M7397.183,49.935l9.173,29.4h29.36l-23.685,18.184,9.222,29.625-24.07-18.321s-23.635,19.052-23.635,18.321,9.277-29.625,9.277-29.625L7358.8,79.337h29.286Z" transform="translate(-7357.25 -48.328)"/></g><g class="g" transform="translate(128 224.496)"><path class="h" d="M7397.183,49.935l9.173,29.4h29.36l-23.685,18.184,9.222,29.625-24.07-18.321s-23.635,19.052-23.635,18.321,9.277-29.625,9.277-29.625L7358.8,79.337h29.286Z" transform="translate(-7357.25 -48.328)"/></g></g></svg>